<?xml version="1.0" encoding="utf-8"?>
<!-- Generator: Adobe Illustrator 15.0.0, SVG Export Plug-In . SVG Version: 6.00 Build 0)  -->
<!DOCTYPE svg PUBLIC "-//W3C//DTD SVG 1.1//EN" "http://www.w3.org/Graphics/SVG/1.1/DTD/svg11.dtd">
<svg version="1.1" id="Layer_1" xmlns="http://www.w3.org/2000/svg" xmlns:xlink="http://www.w3.org/1999/xlink" x="0px" y="0px"
	 width="296.197823841" height="337.612203571" viewBox="0 0 500 569.91" enable-background="new 0 0 500 569.91" xml:space="preserve">
<path d="M500,64.896l-0.68-0.683L436,0.622L435.381,0l-0.826,0.3C433.661,0.625,344.04,32.829,250,32.829
	C155.939,32.829,66.339,0.625,65.445,0.3L64.619,0l-0.62,0.622L0.679,64.214L0,64.896l0.409,0.872
	c0.434,0.927,43.454,93.311,43.454,148.611c0,30.607-10.103,58.002-19.873,84.496c-9.233,25.038-17.955,48.687-17.955,73.667
	c0,20.368,4.177,38.185,12.771,54.468c7.655,14.506,18.661,27.439,33.645,39.538c27.723,22.385,65.325,38.466,101.688,54.019
	c33.423,14.293,67.982,29.074,95.052,48.754L250,569.91l0.809-0.588c27.07-19.681,61.63-34.461,95.052-48.754
	c36.364-15.553,73.966-31.634,101.688-54.019c14.985-12.099,25.991-25.032,33.646-39.538c8.594-16.284,12.771-34.1,12.771-54.468
	c0-24.981-8.721-48.63-17.955-73.667c-9.77-26.493-19.874-53.888-19.874-84.496c0-55.307,43.019-147.684,43.454-148.611L500,64.896z
	"/>
<path fill="#FFFFFF" d="M475.966,306.761H24.032c10.484-28.664,22.532-58.501,22.58-92.381c-0.018-19.813-5.335-44-12.253-67.108
	h431.278c-6.918,23.108-12.234,47.295-12.252,67.108C453.432,248.26,465.48,278.097,475.966,306.761z"/>
<path d="M65.827,186.079v14.552h0.711c2.268,0,3.91-0.712,4.931-2.135c1.019-1.423,1.669-3.523,1.95-6.3h1.002v18.718H73.42
	c-0.21-2.039-0.655-3.708-1.332-5.01c-0.676-1.3-1.463-2.174-2.359-2.623c-0.896-0.448-2.197-0.672-3.901-0.672v10.071
	c0,1.968,0.083,3.172,0.25,3.611c0.167,0.439,0.479,0.8,0.936,1.081c0.457,0.282,1.195,0.422,2.214,0.422h2.136
	c3.339,0,6.015-0.773,8.028-2.319c2.012-1.547,3.457-3.902,4.337-7.066h0.975l-1.608,11.363H52.198v-0.976h1.187
	c1.037,0,1.872-0.185,2.504-0.553c0.457-0.247,0.809-0.668,1.055-1.266c0.193-0.421,0.29-1.529,0.29-3.322v-23.516
	c0-1.617-0.044-2.61-0.132-2.979c-0.177-0.614-0.501-1.089-0.976-1.423c-0.668-0.492-1.582-0.738-2.742-0.738h-1.187v-0.975h29.922
	v10.571h-1.001c-0.51-2.583-1.226-4.438-2.149-5.563c-0.923-1.125-2.227-1.951-3.915-2.478c-0.985-0.316-2.83-0.475-5.536-0.475
	H65.827z"/>
<path d="M98.596,184.023v30.633c0,1.74,0.202,2.852,0.606,3.335c0.404,0.484,1.195,0.76,2.373,0.831v0.949H88.262v-0.949
	c1.089-0.035,1.897-0.352,2.425-0.949c0.352-0.404,0.527-1.476,0.527-3.216v-25.519c0-1.723-0.202-2.825-0.605-3.309
	c-0.405-0.483-1.187-0.76-2.347-0.83v-0.975H98.596z"/>
<path d="M113.571,195.122v19.535c0,1.74,0.202,2.852,0.607,3.335c0.403,0.484,1.194,0.76,2.372,0.831v0.949h-13.313v-0.949
	c1.09-0.035,1.898-0.352,2.425-0.949c0.352-0.404,0.527-1.476,0.527-3.216v-14.394c0-1.74-0.202-2.852-0.606-3.335
	c-0.405-0.483-1.187-0.76-2.347-0.83v-0.975H113.571z M109.88,183.179c1.142,0,2.109,0.4,2.9,1.2c0.791,0.8,1.186,1.762,1.186,2.886
	c0,1.125-0.4,2.083-1.199,2.874c-0.8,0.791-1.763,1.186-2.887,1.186c-1.125,0-2.083-0.395-2.873-1.186
	c-0.792-0.791-1.187-1.749-1.187-2.874c0-1.124,0.396-2.086,1.187-2.886C107.797,183.579,108.755,183.179,109.88,183.179z"/>
<path d="M128.73,186.105v9.017h5.852v2.609h-5.852v15.211c0,1.424,0.065,2.343,0.198,2.755c0.132,0.413,0.365,0.747,0.699,1.002
	c0.333,0.255,0.641,0.382,0.922,0.382c1.143,0,2.223-0.87,3.243-2.609l0.791,0.58c-1.423,3.374-3.734,5.062-6.933,5.062
	c-1.565,0-2.888-0.435-3.968-1.304c-1.081-0.871-1.771-1.841-2.069-2.914c-0.176-0.598-0.264-2.215-0.264-4.851v-13.313h-3.216
	v-0.922c2.214-1.564,4.099-3.208,5.655-4.93c1.556-1.722,2.913-3.646,4.073-5.774H128.73z"/>
<path d="M157.808,206.563h-13.524c0.158,3.269,1.028,5.853,2.609,7.751c1.213,1.458,2.672,2.188,4.377,2.188
	c1.054,0,2.012-0.294,2.873-0.883c0.861-0.588,1.784-1.647,2.768-3.177l0.896,0.581c-1.336,2.724-2.812,4.653-4.429,5.787
	c-1.617,1.133-3.489,1.7-5.615,1.7c-3.656,0-6.424-1.406-8.304-4.218c-1.512-2.267-2.268-5.079-2.268-8.436
	c0-4.112,1.111-7.386,3.335-9.82c2.223-2.434,4.829-3.651,7.816-3.651c2.496,0,4.662,1.023,6.499,3.071
	C156.679,199.502,157.667,202.538,157.808,206.563z M151.323,204.797c0-2.83-0.154-4.772-0.461-5.826
	c-0.308-1.055-0.787-1.854-1.438-2.399c-0.369-0.316-0.861-0.475-1.476-0.475c-0.914,0-1.66,0.448-2.241,1.344
	c-1.038,1.564-1.556,3.709-1.556,6.433v0.923H151.323z"/>
<path d="M197.932,183.205l0.291,11.917h-1.081c-0.51-2.988-1.762-5.392-3.756-7.21c-1.995-1.819-4.152-2.729-6.472-2.729
	c-1.794,0-3.213,0.479-4.258,1.437c-1.046,0.959-1.569,2.062-1.569,3.309c0,0.791,0.185,1.494,0.554,2.109
	c0.509,0.826,1.327,1.644,2.452,2.452c0.826,0.58,2.732,1.608,5.72,3.085c4.183,2.056,7.004,3.999,8.462,5.826
	c1.441,1.828,2.163,3.919,2.163,6.274c0,2.988-1.165,5.558-3.493,7.711c-2.33,2.153-5.286,3.229-8.872,3.229
	c-1.125,0-2.188-0.115-3.19-0.343c-1.002-0.229-2.258-0.659-3.77-1.292c-0.844-0.352-1.538-0.527-2.083-0.527
	c-0.458,0-0.94,0.176-1.451,0.527c-0.51,0.352-0.923,0.887-1.239,1.608h-0.975v-13.498h0.975c0.773,3.795,2.263,6.692,4.469,8.686
	c2.205,1.995,4.582,2.992,7.131,2.992c1.969,0,3.537-0.535,4.706-1.608c1.169-1.072,1.753-2.32,1.753-3.743
	c0-0.844-0.224-1.661-0.672-2.452c-0.448-0.791-1.129-1.542-2.042-2.254c-0.915-0.712-2.532-1.639-4.851-2.781
	c-3.251-1.6-5.589-2.961-7.013-4.086c-1.424-1.125-2.518-2.381-3.282-3.77c-0.765-1.388-1.147-2.918-1.147-4.588
	c0-2.847,1.045-5.272,3.137-7.275c2.091-2.003,4.727-3.006,7.909-3.006c1.16,0,2.285,0.141,3.374,0.421
	c0.826,0.211,1.833,0.603,3.019,1.174c1.186,0.571,2.017,0.857,2.491,0.857c0.457,0,0.817-0.141,1.081-0.422
	c0.264-0.281,0.509-0.957,0.738-2.03H197.932z"/>
<path d="M213.962,217.267v9.174c0,1.266,0.101,2.126,0.303,2.584c0.202,0.457,0.514,0.791,0.936,1.001
	c0.422,0.211,1.248,0.317,2.478,0.317v0.976h-14.052v-0.976c1.089-0.036,1.898-0.343,2.426-0.922
	c0.351-0.405,0.527-1.45,0.527-3.137v-26.021c0-1.74-0.203-2.852-0.607-3.335c-0.404-0.483-1.186-0.76-2.346-0.83v-0.975h10.335
	v3.242c0.86-1.265,1.74-2.179,2.636-2.741c1.283-0.827,2.68-1.239,4.192-1.239c1.81,0,3.457,0.571,4.943,1.713
	c1.485,1.143,2.614,2.72,3.388,4.732c0.773,2.013,1.159,4.179,1.159,6.499c0,2.496-0.399,4.776-1.199,6.841
	c-0.8,2.065-1.961,3.639-3.48,4.719c-1.52,1.081-3.212,1.621-5.075,1.621c-1.354,0-2.619-0.299-3.796-0.896
	C215.85,219.156,214.927,218.374,213.962,217.267z M213.962,214.604c1.511,2.144,3.128,3.216,4.85,3.216
	c0.95,0,1.731-0.501,2.347-1.503c0.914-1.476,1.371-4.288,1.371-8.436c0-4.253-0.5-7.162-1.502-8.726
	c-0.668-1.037-1.564-1.555-2.689-1.555c-1.776,0-3.234,1.283-4.376,3.849V214.604z"/>
<path d="M246.072,194.384c2.144,0,4.139,0.553,5.984,1.661c1.846,1.107,3.248,2.68,4.206,4.719c0.958,2.039,1.438,4.271,1.438,6.696
	c0,3.498-0.889,6.424-2.663,8.779c-2.146,2.847-5.107,4.271-8.886,4.271c-3.708,0-6.564-1.301-8.568-3.901
	c-2.004-2.602-3.006-5.616-3.006-9.042c0-3.533,1.024-6.613,3.072-9.241C239.696,195.698,242.504,194.384,246.072,194.384z
	 M246.177,196.255c-0.896,0-1.666,0.339-2.307,1.015c-0.642,0.677-1.063,2.013-1.266,4.007c-0.202,1.995-0.303,4.768-0.303,8.317
	c0,1.881,0.123,3.638,0.369,5.273c0.193,1.248,0.606,2.197,1.239,2.847c0.633,0.651,1.353,0.976,2.162,0.976
	c0.791,0,1.45-0.22,1.978-0.659c0.685-0.597,1.142-1.432,1.371-2.504c0.351-1.669,0.527-5.044,0.527-10.124
	c0-2.987-0.167-5.039-0.501-6.155c-0.334-1.116-0.826-1.929-1.477-2.438C247.512,196.439,246.915,196.255,246.177,196.255z"/>
<path d="M271.671,195.122v5.589c1.634-2.548,3.065-4.24,4.296-5.075c1.23-0.835,2.416-1.252,3.56-1.252
	c0.984,0,1.771,0.303,2.36,0.909c0.588,0.606,0.882,1.463,0.882,2.57c0,1.178-0.285,2.092-0.856,2.742
	c-0.571,0.65-1.26,0.975-2.069,0.975c-0.932,0-1.74-0.299-2.426-0.896c-0.685-0.597-1.09-0.931-1.212-1.001
	c-0.177-0.106-0.378-0.158-0.606-0.158c-0.51,0-0.993,0.193-1.45,0.58c-0.722,0.598-1.267,1.45-1.635,2.558
	c-0.563,1.705-0.843,3.585-0.843,5.641v5.668l0.026,1.476c0,1.002,0.061,1.644,0.186,1.924c0.209,0.475,0.521,0.823,0.936,1.042
	c0.412,0.221,1.111,0.356,2.095,0.409v0.949H261.6v-0.949c1.072-0.087,1.795-0.383,2.175-0.883c0.377-0.501,0.566-1.823,0.566-3.967
	v-13.63c0-1.406-0.071-2.302-0.21-2.689c-0.176-0.492-0.432-0.852-0.765-1.081c-0.333-0.228-0.923-0.386-1.766-0.475v-0.975H271.671
	z"/>
<path d="M295.187,186.105v9.017h5.852v2.609h-5.852v15.211c0,1.424,0.066,2.343,0.198,2.755c0.132,0.413,0.365,0.747,0.698,1.002
	c0.334,0.255,0.642,0.382,0.923,0.382c1.143,0,2.223-0.87,3.242-2.609l0.791,0.58c-1.424,3.374-3.734,5.062-6.932,5.062
	c-1.564,0-2.887-0.435-3.969-1.304c-1.08-0.871-1.77-1.841-2.069-2.914c-0.176-0.598-0.264-2.215-0.264-4.851v-13.313h-3.216v-0.922
	c2.214-1.564,4.099-3.208,5.655-4.93c1.556-1.722,2.913-3.646,4.074-5.774H295.187z"/>
<path d="M318.966,194.436l0.394,8.41h-0.896c-1.072-2.496-2.183-4.201-3.334-5.115c-1.151-0.913-2.297-1.371-3.44-1.371
	c-0.721,0-1.336,0.242-1.845,0.725c-0.511,0.484-0.764,1.042-0.764,1.674c0,0.475,0.174,0.932,0.526,1.371
	c0.563,0.721,2.136,1.956,4.719,3.704c2.584,1.749,4.284,3.234,5.101,4.456c0.817,1.222,1.226,2.587,1.226,4.099
	c0,1.372-0.341,2.716-1.027,4.034c-0.685,1.318-1.653,2.329-2.901,3.032c-1.249,0.703-2.627,1.054-4.139,1.054
	c-1.178,0-2.751-0.369-4.719-1.107c-0.528-0.194-0.889-0.291-1.082-0.291c-0.58,0-1.064,0.439-1.451,1.318h-0.869l-0.422-8.858
	h0.897c0.791,2.32,1.875,4.06,3.256,5.22c1.379,1.161,2.684,1.74,3.915,1.74c0.842,0,1.533-0.259,2.07-0.777
	c0.536-0.518,0.803-1.147,0.803-1.885c0-0.844-0.263-1.573-0.791-2.188c-0.528-0.615-1.705-1.546-3.532-2.795
	c-2.69-1.862-4.429-3.286-5.22-4.271c-1.159-1.44-1.741-3.031-1.741-4.771c0-1.898,0.655-3.616,1.964-5.154
	c1.31-1.538,3.205-2.307,5.683-2.307c1.334,0,2.627,0.326,3.875,0.975c0.474,0.264,0.86,0.396,1.16,0.396
	c0.316,0,0.571-0.066,0.764-0.198c0.194-0.132,0.501-0.505,0.923-1.12H318.966z"/>
<path d="M372.114,183.205v12.39h-1.029c-0.774-3.233-2.215-5.711-4.323-7.434c-2.109-1.722-4.5-2.583-7.171-2.583
	c-2.232,0-4.28,0.642-6.143,1.924c-1.862,1.283-3.226,2.961-4.086,5.036c-1.108,2.654-1.661,5.606-1.661,8.857
	c0,3.199,0.405,6.112,1.212,8.739c0.809,2.628,2.074,4.614,3.797,5.958c1.722,1.344,3.953,2.017,6.694,2.017
	c2.251,0,4.312-0.492,6.183-1.477c1.871-0.984,3.845-2.68,5.918-5.088v3.084c-2.004,2.092-4.09,3.607-6.262,4.548
	c-2.171,0.94-4.705,1.411-7.605,1.411c-3.814,0-7.202-0.765-10.162-2.294c-2.962-1.529-5.248-3.726-6.856-6.591
	c-1.606-2.864-2.412-5.914-2.412-9.148c0-3.41,0.892-6.644,2.676-9.702s4.192-5.431,7.223-7.118
	c3.033-1.687,6.252-2.531,9.663-2.531c2.512,0,5.167,0.545,7.961,1.634c1.617,0.633,2.645,0.95,3.084,0.95
	c0.563,0,1.05-0.207,1.463-0.62c0.413-0.413,0.681-1.067,0.804-1.964H372.114z"/>
<path d="M386.534,184.023v30.633c0,1.74,0.203,2.852,0.606,3.335c0.405,0.484,1.196,0.76,2.374,0.831v0.949h-13.314v-0.949
	c1.09-0.035,1.899-0.352,2.426-0.949c0.351-0.404,0.528-1.476,0.528-3.216v-25.519c0-1.723-0.204-2.825-0.607-3.309
	c-0.405-0.483-1.186-0.76-2.347-0.83v-0.975H386.534z"/>
<path d="M415.692,195.122v19.298c0,1.88,0.176,3.054,0.527,3.519c0.352,0.466,1.064,0.76,2.135,0.883v0.949H408.31v-3.295
	c-1.177,1.406-2.355,2.43-3.532,3.072c-1.178,0.641-2.497,0.962-3.955,0.962c-1.388,0-2.624-0.426-3.704-1.278
	s-1.806-1.849-2.175-2.992c-0.369-1.142-0.553-3.138-0.553-5.985v-9.781c0-1.862-0.171-3.022-0.515-3.48
	c-0.342-0.457-1.059-0.755-2.148-0.896v-0.975h10.044v16.846c0,1.757,0.084,2.891,0.251,3.4c0.167,0.51,0.43,0.896,0.791,1.16
	c0.36,0.263,0.777,0.395,1.253,0.395c0.632,0,1.204-0.167,1.713-0.501c0.703-0.457,1.546-1.379,2.531-2.768v-13.182
	c0-1.862-0.172-3.022-0.514-3.48c-0.343-0.457-1.058-0.755-2.148-0.896v-0.975H415.692z"/>
<path d="M431.456,184.023V197.6c2.074-2.144,4.341-3.216,6.803-3.216c1.687,0,3.276,0.497,4.771,1.489
	c1.494,0.993,2.663,2.403,3.505,4.231c0.845,1.829,1.267,3.937,1.267,6.327c0,2.688-0.536,5.132-1.609,7.329
	c-1.073,2.197-2.504,3.871-4.297,5.021c-1.792,1.151-3.841,1.727-6.142,1.727c-1.336,0-2.522-0.21-3.561-0.632
	c-1.037-0.422-2.055-1.108-3.057-2.057l-4.087,2.663h-0.896v-31.345c0-1.424-0.062-2.303-0.185-2.636
	c-0.176-0.492-0.452-0.857-0.83-1.095c-0.379-0.237-1.016-0.374-1.913-0.408v-0.975H431.456z M431.456,199.946v10.967
	c0,2.232,0.052,3.655,0.159,4.271c0.176,1.037,0.598,1.876,1.264,2.518c0.668,0.642,1.521,0.963,2.559,0.963
	c0.896,0,1.665-0.255,2.306-0.765c0.641-0.509,1.178-1.52,1.608-3.032c0.43-1.511,0.646-4.235,0.646-8.172
	c0-3.779-0.475-6.371-1.424-7.778c-0.685-1.018-1.608-1.528-2.768-1.528C434.295,197.389,432.845,198.242,431.456,199.946z"/>
<path d="M123.289,257.701c-1.243-4.738-3.65-5.98-6.407-5.98c-4.661,0-7.534,5.048-7.534,10.64c0,7.145,3.495,11.727,7.495,11.727
	c3.378,0,5.32-2.174,7.3-6.446l1.708,0.272c-0.504,2.291-1.437,5.63-2.097,7.106c-0.97,0.272-4.465,1.087-7.067,1.087
	c-10.446,0-14.563-6.601-14.563-12.853c0-8.038,6.291-13.552,15.261-13.552c3.223,0,5.825,0.777,6.912,1.01
	c0.311,2.136,0.465,3.844,0.699,6.756L123.289,257.701z"/>
<path d="M144.916,270.477c0,1.631,0.465,2.213,1.009,2.213c0.388,0,0.893-0.194,1.282-0.35l0.465,1.398l-4.854,2.252
	c-2.019,0-3.028-1.048-3.455-2.136c-1.593,0.893-3.146,2.136-3.845,2.136c-3.767,0-5.825-2.563-5.825-5.514
	c0-2.214,1.126-3.379,3.534-4.272c2.058-0.776,4.66-1.67,5.902-2.291v-1.125c0-1.632-1.048-2.796-2.096-2.796
	c-0.467,0-0.894,0.155-1.166,0.504c-0.466,0.622-0.815,1.786-1.165,3.262c-0.194,0.776-0.932,1.126-1.631,1.126
	c-1.048,0-3.028-0.737-3.028-2.174c0-0.776,0.504-1.398,1.475-2.175c1.281-1.009,4.388-2.446,7.184-2.873
	c2.33,0,3.534,0.465,4.543,1.204c1.398,1.009,1.67,2.407,1.67,3.844V270.477z M139.129,265.972
	c-0.854,0.312-1.359,0.544-1.941,0.894c-1.009,0.543-1.476,1.476-1.476,2.757c0,2.136,1.514,3.068,2.213,3.068
	c0.272,0,0.777-0.117,1.204-0.35V265.972z"/>
<path d="M168.872,258.128v1.514c-1.669,0.156-2.213,0.505-3.223,2.563c-1.087,2.213-2.02,4.466-4.311,9.786
	c-2.679,6.058-3.689,8.815-4.387,10.795c-0.35,1.048-1.049,1.243-1.787,1.243c-1.787,0-2.835-1.515-2.835-2.292
	c0-0.622,0.233-1.009,0.738-1.398c1.282-0.971,2.369-1.787,3.106-2.757c0.777-1.087,1.048-1.748,1.048-2.214
	c0-0.427-0.116-0.738-0.271-1.125l-4.971-12.039c-0.894-2.174-1.049-2.446-2.835-2.563v-1.514h10.407v1.514l-1.281,0.233
	c-0.622,0.078-0.622,0.505-0.116,1.98l2.33,6.679h0.078c0.815-2.135,1.553-4.271,2.33-6.407c0.621-1.708,0.66-2.213,0.039-2.291
	l-1.281-0.194v-1.514H168.872z"/>
<path d="M180.403,271.409c0,2.213,0.195,2.369,1.515,2.601v1.515h-10.135v-1.515c2.33-0.232,2.523-0.388,2.523-2.601v-8.427
	c0-2.33-0.078-2.369-2.251-2.523v-1.321c2.835-0.271,5.669-0.815,8.349-1.475v2.407l1.748-1.087c1.397-0.893,2.252-1.32,3.689-1.32
	c2.291,0,3.883,1.009,4.659,2.641l2.019-1.321c1.398-0.893,2.252-1.32,3.729-1.32c3.611,0,5.514,2.213,5.514,5.203v8.543
	c0,2.213,0.194,2.369,2.019,2.601v1.515h-9.864v-1.515c1.593-0.232,1.748-0.388,1.748-2.601v-7.417c0-2.291-0.971-3.029-2.33-3.029
	c-0.816,0-1.592,0.388-2.291,1.087c0.039,0.233,0.039,0.505,0.039,0.816v8.543c0,2.213,0.194,2.369,1.514,2.601v1.515h-9.358v-1.515
	c1.592-0.232,1.748-0.388,1.748-2.601v-7.417c0-2.291-0.894-3.029-2.098-3.029c-1.204,0-1.825,0.505-2.485,1.126V271.409z"/>
<path d="M222.919,270.477c0,1.631,0.466,2.213,1.01,2.213c0.388,0,0.893-0.194,1.281-0.35l0.465,1.398l-4.854,2.252
	c-2.019,0-3.028-1.048-3.456-2.136c-1.592,0.893-3.146,2.136-3.845,2.136c-3.767,0-5.824-2.563-5.824-5.514
	c0-2.214,1.126-3.379,3.534-4.272c2.058-0.776,4.66-1.67,5.902-2.291v-1.125c0-1.632-1.048-2.796-2.096-2.796
	c-0.466,0-0.894,0.155-1.166,0.504c-0.466,0.622-0.815,1.786-1.165,3.262c-0.194,0.776-0.932,1.126-1.631,1.126
	c-1.048,0-3.028-0.737-3.028-2.174c0-0.776,0.504-1.398,1.475-2.175c1.281-1.009,4.388-2.446,7.184-2.873
	c2.33,0,3.534,0.465,4.543,1.204c1.398,1.009,1.669,2.407,1.669,3.844V270.477z M217.133,265.972
	c-0.854,0.312-1.359,0.544-1.941,0.894c-1.01,0.543-1.476,1.476-1.476,2.757c0,2.136,1.514,3.068,2.213,3.068
	c0.272,0,0.777-0.117,1.204-0.35V265.972z"/>
<path d="M250.099,275.525h-9.98v-1.515c1.592-0.232,1.748-0.388,1.748-2.601v-7.417c0-2.291-0.894-3.029-2.213-3.029
	c-1.126,0-1.786,0.505-2.369,1.126v9.32c0,2.213,0.195,2.369,1.515,2.601v1.515h-10.136v-1.515c2.33-0.232,2.524-0.388,2.524-2.601
	v-8.427c0-2.33-0.078-2.369-2.252-2.523v-1.321c2.641-0.271,5.475-0.815,8.349-1.475v2.407l1.476-1.048
	c1.359-0.971,2.213-1.359,3.572-1.359c3.728,0,5.631,2.213,5.631,5.203v8.543c0,2.213,0.194,2.369,2.136,2.601V275.525z"/>
<path d="M274.441,269.312c0,4.194,0.311,4.466,2.991,4.699v1.515h-12.581v-1.515c2.679-0.232,2.99-0.505,2.99-4.699v-12.814
	c0-4.194-0.311-4.466-2.99-4.699v-1.514h12.581v1.514c-2.68,0.233-2.991,0.505-2.991,4.699V269.312z"/>
<path d="M293.039,263.332c-1.359-2.912-2.951-3.728-4.194-3.728c-1.01,0-1.786,0.777-1.786,1.786c0,1.165,1.319,1.941,2.523,2.369
	c3.379,1.165,5.902,2.68,5.902,6.057c0,4.35-4.193,6.175-7.611,6.175c-2.368,0-4.621-0.932-5.396-1.708
	c-0.233-0.66-0.7-3.612-0.7-5.087l1.437-0.233c1.088,2.563,3.223,5.087,5.127,5.087c1.359,0,2.136-0.894,2.136-1.98
	c0-1.359-1.049-2.214-2.796-2.874c-1.942-0.738-5.359-2.136-5.359-5.515c0-3.494,2.718-5.979,6.95-6.018
	c1.669-0.039,3.339,0.388,4.272,0.854c0.465,0.932,1.009,3.922,1.048,4.465L293.039,263.332z"/>
<path d="M301.425,253.429c0-2.291-0.077-2.33-2.407-2.485v-1.397c2.136-0.271,5.204-0.816,8.504-1.359v23.183
	c0,2.213,0.193,2.408,2.251,2.64v1.515h-10.6v-1.515c2.057-0.232,2.251-0.427,2.251-2.64V253.429z"/>
<path d="M328.878,270.477c0,1.631,0.465,2.213,1.009,2.213c0.389,0,0.893-0.194,1.281-0.35l0.466,1.398l-4.854,2.252
	c-2.02,0-3.03-1.048-3.457-2.136c-1.592,0.893-3.146,2.136-3.844,2.136c-3.767,0-5.826-2.563-5.826-5.514
	c0-2.214,1.126-3.379,3.534-4.272c2.059-0.776,4.66-1.67,5.903-2.291v-1.125c0-1.632-1.048-2.796-2.097-2.796
	c-0.466,0-0.894,0.155-1.166,0.504c-0.465,0.622-0.814,1.786-1.164,3.262c-0.195,0.776-0.931,1.126-1.631,1.126
	c-1.048,0-3.029-0.737-3.029-2.174c0-0.776,0.505-1.398,1.476-2.175c1.281-1.009,4.388-2.446,7.183-2.873
	c2.331,0,3.534,0.465,4.544,1.204c1.398,1.009,1.67,2.407,1.67,3.844V270.477z M323.091,265.972
	c-0.854,0.312-1.359,0.544-1.942,0.894c-1.01,0.543-1.476,1.476-1.476,2.757c0,2.136,1.514,3.068,2.214,3.068
	c0.271,0,0.776-0.117,1.204-0.35V265.972z"/>
<path d="M356.057,275.525h-9.98v-1.515c1.592-0.232,1.748-0.388,1.748-2.601v-7.417c0-2.291-0.893-3.029-2.214-3.029
	c-1.125,0-1.786,0.505-2.368,1.126v9.32c0,2.213,0.194,2.369,1.514,2.601v1.515h-10.136v-1.515c2.331-0.232,2.525-0.388,2.525-2.601
	v-8.427c0-2.33-0.078-2.369-2.252-2.523v-1.321c2.641-0.271,5.476-0.815,8.349-1.475v2.407l1.475-1.048
	c1.359-0.971,2.214-1.359,3.573-1.359c3.727,0,5.629,2.213,5.629,5.203v8.543c0,2.213,0.195,2.369,2.137,2.601V275.525z"/>
<path d="M377.955,271.137c0,1.748,0.233,1.864,1.282,1.941l1.204,0.078v1.476c-1.009,0.155-5.165,0.544-8.583,1.476v-2.097
	l-1.669,1.243c-0.854,0.621-1.437,0.737-2.019,0.737c-3.301,0-7.883-2.796-8.077-8.349c-0.195-5.553,4.427-9.979,10.484-9.979
	c0.389,0,0.894,0.116,1.281,0.194v-4.427c0-2.291-0.078-2.33-2.407-2.485v-1.397c2.137-0.271,5.203-0.816,8.504-1.359V271.137z
	 M371.858,260.963c-0.621-0.854-1.281-1.282-2.057-1.282c-0.855,0-3.106,0.738-3.106,6.175c0,5.63,2.678,6.951,3.61,6.951
	c0.699,0,1.166-0.272,1.553-0.622V260.963z"/>
<path d="M395.427,263.332c-1.359-2.912-2.951-3.728-4.195-3.728c-1.009,0-1.785,0.777-1.785,1.786c0,1.165,1.32,1.941,2.523,2.369
	c3.378,1.165,5.902,2.68,5.902,6.057c0,4.35-4.193,6.175-7.611,6.175c-2.368,0-4.621-0.932-5.396-1.708
	c-0.233-0.66-0.7-3.612-0.7-5.087l1.437-0.233c1.087,2.563,3.223,5.087,5.127,5.087c1.359,0,2.135-0.894,2.135-1.98
	c0-1.359-1.048-2.214-2.795-2.874c-1.942-0.738-5.358-2.136-5.358-5.515c0-3.494,2.718-5.979,6.95-6.018
	c1.67-0.039,3.339,0.388,4.272,0.854c0.465,0.932,1.009,3.922,1.048,4.465L395.427,263.332z"/>
<path fill="#ADE0EE" d="M29.703,65.476c0-3.169-0.234-3.375-2.113-3.551V60.78h9.158c4.138,0,6.575,1.204,6.575,4.344
	c0,2.554-2.437,3.904-4.109,4.109v0.059c2.817,0.322,5.195,1.878,5.195,4.96c0,2.143-1.056,3.522-2.642,4.461
	c-1.408,0.822-3.463,1.145-5.9,1.145h-8.453v-1.145c2.055-0.176,2.29-0.381,2.29-3.552V65.476z M34.4,68.969h0.939
	c1.702,0,2.994-1.086,2.994-3.434c0-2.583-1.556-3.288-2.612-3.288c-0.734,0-1.057,0.088-1.145,0.176
	c-0.146,0.089-0.176,0.705-0.176,1.497V68.969z M34.4,75.251c0,2.643,0.646,3.141,1.731,3.141c1.174-0.03,2.965-0.969,2.965-3.845
	c0-2.965-1.791-4.227-3.845-4.227H34.4V75.251z"/>
<path fill="#ADE0EE" d="M55.502,69.762c0-1.086-0.293-1.35-0.91-1.438l-0.763-0.117v-1.145c2.172-0.088,4.696-0.382,6.282-0.558
	v9.892c0,1.262,0.117,1.584,1.056,1.584h0.764v1.145c-1.996,0.265-3.904,0.558-6.223,1.086l-0.206-0.147v-1.908L53.8,79.214
	c-1.056,0.646-1.761,0.998-2.143,0.998c-2.847,0-4.227-1.673-4.227-3.962v-6.487c0-1.086-0.293-1.321-0.939-1.438l-0.616-0.117
	v-1.145c1.791-0.088,4.578-0.382,6.164-0.558v8.982c0,1.526,0.734,2.143,1.584,2.143c0.47,0,1.263-0.323,1.878-0.91V69.762z"/>
<path fill="#ADE0EE" d="M64.453,70.437c0-1.791-0.059-1.82-1.703-2.025v-0.998c1.762-0.236,4.139-0.646,6.312-1.057v10.361
	c0,1.673,0.146,1.82,1.702,1.996v1.145H62.75v-1.145c1.556-0.176,1.703-0.323,1.703-1.996V70.437z M69.238,62.395
	c0,1.409-1.115,2.554-2.554,2.554c-1.379,0-2.553-1.145-2.553-2.554c0-1.438,1.174-2.554,2.553-2.554
	C68.122,59.841,69.238,60.956,69.238,62.395z"/>
<path fill="#ADE0EE" d="M73.111,63.158c0-1.732-0.059-1.761-1.82-1.879v-1.057c1.615-0.205,3.933-0.616,6.428-1.027v17.523
	c0,1.673,0.147,1.82,1.703,1.996v1.145h-8.013v-1.145c1.556-0.176,1.702-0.323,1.702-1.996V63.158z"/>
<path fill="#ADE0EE" d="M93.98,76.542c0,1.321,0.176,1.41,0.968,1.468l0.91,0.059v1.115c-0.763,0.118-3.904,0.412-6.487,1.116
	v-1.585l-1.262,0.939c-0.646,0.469-1.086,0.558-1.527,0.558c-2.495,0-5.958-2.113-6.105-6.311c-0.147-4.197,3.346-7.543,7.925-7.543
	c0.293,0,0.675,0.088,0.968,0.147v-3.346c0-1.732-0.059-1.761-1.819-1.879v-1.057c1.614-0.205,3.933-0.616,6.428-1.027V76.542z
	 M89.371,68.852c-0.469-0.646-0.968-0.969-1.556-0.969c-0.646,0-2.349,0.558-2.349,4.667c0,4.256,2.026,5.254,2.73,5.254
	c0.528,0,0.881-0.206,1.174-0.47V68.852z"/>
<path fill="#ADE0EE" d="M98.322,70.437c0-1.791-0.059-1.82-1.703-2.025v-0.998c1.762-0.236,4.139-0.646,6.311-1.057v10.361
	c0,1.673,0.147,1.82,1.703,1.996v1.145h-8.014v-1.145c1.556-0.176,1.703-0.323,1.703-1.996V70.437z M103.106,62.395
	c0,1.409-1.115,2.554-2.554,2.554c-1.379,0-2.553-1.145-2.553-2.554c0-1.438,1.174-2.554,2.553-2.554
	C101.991,59.841,103.106,60.956,103.106,62.395z"/>
<path fill="#ADE0EE" d="M121.568,79.859h-7.543v-1.145c1.203-0.176,1.32-0.294,1.32-1.967v-5.606c0-1.732-0.674-2.29-1.673-2.29
	c-0.851,0-1.35,0.381-1.791,0.852v7.044c0,1.673,0.147,1.791,1.145,1.967v1.145h-7.661v-1.145c1.762-0.176,1.908-0.294,1.908-1.967
	v-6.369c0-1.762-0.059-1.791-1.702-1.908v-0.998c1.996-0.205,4.139-0.616,6.311-1.115v1.82l1.116-0.792
	c1.027-0.734,1.673-1.028,2.7-1.028c2.818,0,4.256,1.673,4.256,3.933v6.458c0,1.673,0.147,1.791,1.614,1.967V79.859z"/>
<path fill="#ADE0EE" d="M124.091,85.055c-0.969-0.705-1.409-1.732-1.409-2.554c0-0.587,0.206-0.998,0.646-1.321
	c0.499-0.352,1.967-0.968,2.495-1.203c-1.027-0.412-1.76-1.057-2.171-1.673c-0.293-0.411-0.499-1.086-0.44-1.673
	c1.438-0.558,2.611-1.204,3.316-1.585v-0.058c-2.377-0.44-3.581-2.173-3.581-3.845c0-3.199,3.082-4.785,6.135-4.785
	c1.262,0,2.436,0.264,3.376,0.705c1.408-0.059,3.316-0.265,4.167-0.352l0.234,0.293c-0.117,0.616-0.674,1.556-1.115,1.878
	l-1.585-0.176c0.44,0.587,0.646,1.32,0.646,1.966c0,2.994-2.876,4.609-5.988,4.609c-0.206,0-0.352,0-0.587-0.03
	c-0.293,0.118-0.558,0.382-0.558,0.646c0,0.381,0.293,0.851,1.556,0.851c0.469,0,1.467-0.029,2.524-0.029
	c1.644,0,4.491,0.528,4.491,3.816c0,3.111-3.258,5.752-7.603,5.752C126.615,86.287,125.089,85.759,124.091,85.055z M131.194,80.564
	c-0.705-0.235-1.292-0.293-2.202-0.293c-0.998,0-1.556,0.118-1.819,0.411c-0.264,0.265-0.441,0.705-0.441,1.263
	c0,1.702,1.409,2.67,3.229,2.67c1.792,0,2.643-1.027,2.643-2.289C132.603,81.504,131.957,80.799,131.194,80.564z M129.139,73.901
	c0.852,0,1.438-0.88,1.438-2.847c0-1.732-0.763-3.347-1.762-3.347c-0.763,0-1.379,0.968-1.379,2.759
	C127.437,72.58,128.376,73.901,129.139,73.901z"/>
<path fill="#ADE0EE" d="M159.399,66.386c-0.938-3.581-2.759-4.52-4.843-4.52c-3.522,0-5.695,3.816-5.695,8.042
	c0,5.401,2.643,8.864,5.666,8.864c2.553,0,4.021-1.644,5.518-4.873l1.291,0.206c-0.381,1.732-1.085,4.256-1.584,5.372
	c-0.733,0.206-3.375,0.822-5.342,0.822c-7.896,0-11.007-4.989-11.007-9.715c0-6.076,4.755-10.245,11.535-10.245
	c2.437,0,4.403,0.587,5.225,0.764c0.235,1.615,0.353,2.906,0.529,5.107L159.399,66.386z"/>
<path fill="#ADE0EE" d="M177.948,79.859h-7.543v-1.145c1.204-0.176,1.321-0.294,1.321-1.967v-5.606c0-1.732-0.793-2.377-1.791-2.377
	c-0.734,0-1.233,0.381-1.673,0.734v7.25c0,1.673,0.147,1.791,1.144,1.967v1.145h-7.661v-1.145c1.762-0.176,1.909-0.294,1.909-1.967
	v-13.59c0-1.732-0.059-1.761-1.82-1.879v-1.057c1.615-0.205,3.934-0.616,6.429-1.027v8.776c1.027-0.763,2.201-1.614,3.699-1.614
	c2.758,0,4.373,1.673,4.373,4.52v5.871c0,1.673,0.147,1.791,1.614,1.967V79.859z"/>
<path fill="#ADE0EE" d="M190.833,76.044c0,1.232,0.351,1.673,0.763,1.673c0.292,0,0.675-0.146,0.969-0.264l0.353,1.057l-3.67,1.703
	c-1.526,0-2.289-0.792-2.611-1.615c-1.204,0.675-2.378,1.615-2.906,1.615c-2.847,0-4.403-1.937-4.403-4.168
	c0-1.673,0.852-2.554,2.67-3.229c1.556-0.587,3.523-1.261,4.461-1.731v-0.851c0-1.233-0.792-2.113-1.584-2.113
	c-0.353,0-0.675,0.117-0.88,0.382c-0.353,0.469-0.617,1.35-0.882,2.465c-0.146,0.587-0.704,0.851-1.232,0.851
	c-0.792,0-2.289-0.558-2.289-1.644c0-0.587,0.382-1.056,1.115-1.643c0.969-0.763,3.316-1.85,5.43-2.172
	c1.761,0,2.671,0.353,3.435,0.91c1.056,0.763,1.263,1.82,1.263,2.905V76.044z M186.458,72.639c-0.645,0.234-1.027,0.411-1.467,0.674
	c-0.763,0.411-1.116,1.116-1.116,2.084c0,1.614,1.146,2.319,1.673,2.319c0.206,0,0.588-0.088,0.91-0.264V72.639z"/>
<path fill="#ADE0EE" d="M199.782,76.748c0,1.644,0.147,1.791,2.173,1.967v1.145h-8.571v-1.145c1.645-0.176,1.792-0.323,1.792-1.967
	v-6.311c0-1.791-0.059-1.82-1.732-2.025v-0.998c2.495-0.236,4.374-0.646,6.193-1.057v2.554h0.059
	c0.323-0.529,0.733-1.145,1.203-1.644c0.499-0.529,1.116-0.91,1.938-0.91c1.233,0,2.054,0.939,2.054,2.084
	c0,1.791-1.32,2.613-2.113,2.613c-0.323,0-0.558-0.088-0.763-0.235c-0.558-0.41-0.969-0.705-1.408-0.705
	c-0.353,0-0.705,0.206-0.823,0.793V76.748z"/>
<path fill="#ADE0EE" d="M217.541,76.044c0,1.232,0.351,1.673,0.763,1.673c0.292,0,0.675-0.146,0.968-0.264l0.353,1.057l-3.67,1.703
	c-1.526,0-2.29-0.792-2.612-1.615c-1.204,0.675-2.377,1.615-2.906,1.615c-2.847,0-4.403-1.937-4.403-4.168
	c0-1.673,0.852-2.554,2.67-3.229c1.557-0.587,3.523-1.261,4.461-1.731v-0.851c0-1.233-0.792-2.113-1.584-2.113
	c-0.352,0-0.674,0.117-0.88,0.382c-0.353,0.469-0.617,1.35-0.882,2.465c-0.146,0.587-0.703,0.851-1.232,0.851
	c-0.792,0-2.289-0.558-2.289-1.644c0-0.587,0.382-1.056,1.116-1.643c0.968-0.763,3.316-1.85,5.43-2.172
	c1.761,0,2.671,0.353,3.434,0.91c1.056,0.763,1.263,1.82,1.263,2.905V76.044z M213.166,72.639c-0.645,0.234-1.027,0.411-1.467,0.674
	c-0.763,0.411-1.116,1.116-1.116,2.084c0,1.614,1.146,2.319,1.673,2.319c0.206,0,0.588-0.088,0.91-0.264V72.639z"/>
<path fill="#ADE0EE" d="M232.274,76.689c-1.379,2.113-3.258,3.522-5.313,3.522c-4.345,0-6.664-3.17-6.664-6.34
	c0-2.318,1.057-4.344,2.848-5.694c1.966-1.497,3.962-1.82,4.871-1.82c1.176,0,2.555,0.294,3.201,0.821
	c0.411,0.353,0.498,0.705,0.498,1.263c0,1.057-1.085,1.731-1.555,1.731c-0.118,0-0.441-0.117-0.764-0.44
	c-1.292-1.321-2.26-1.584-2.729-1.584c-1.057,0-2.056,1.614-2.056,4.079c0,3.376,2.202,4.814,3.729,4.814
	c1.174,0,2.142-0.294,3.228-1.204L232.274,76.689z"/>
<path fill="#ADE0EE" d="M239.024,75.398c0,2.055,0.821,2.465,1.349,2.465c0.411,0,0.91-0.088,1.409-0.352l0.411,1.028l-2.817,1.32
	c-0.616,0.294-0.882,0.353-1.204,0.353c-2.32,0-3.757-0.998-3.757-3.846v-7.954h-1.79l-0.294-0.469l0.938-1.233h1.146v-1.938
	l4.109-2.172l0.5,0.265v3.845h2.642c0.38,0.323,0.322,1.467-0.206,1.702h-2.436V75.398z"/>
<path fill="#ADE0EE" d="M254.873,76.895c-1.85,2.67-4.255,3.317-5.254,3.317c-4.139,0-6.692-2.818-6.692-6.487
	c0-4.021,3.17-7.367,7.133-7.367c2.348,0,4.873,2.055,4.873,4.814c0,0.998-0.117,1.056-0.734,1.174
	c-0.439,0.088-3.991,0.382-6.81,0.5c0.059,2.642,2.055,4.226,3.698,4.226c1.116,0,2.026-0.381,3.229-1.115L254.873,76.895z
	 M250.059,71.2c0.5-0.029,0.616-0.118,0.616-0.616c0-1.292-0.91-2.701-1.644-2.701c-0.646,0-1.556,0.969-1.585,3.405L250.059,71.2z"
	/>
<path fill="#ADE0EE" d="M262.503,76.748c0,1.644,0.146,1.791,2.172,1.967v1.145h-8.571v-1.145c1.645-0.176,1.792-0.323,1.792-1.967
	v-6.311c0-1.791-0.058-1.82-1.731-2.025v-0.998c2.495-0.236,4.374-0.646,6.194-1.057v2.554h0.058
	c0.323-0.529,0.734-1.145,1.203-1.644c0.5-0.529,1.116-0.91,1.938-0.91c1.233,0,2.054,0.939,2.054,2.084
	c0,1.791-1.32,2.613-2.113,2.613c-0.323,0-0.559-0.088-0.763-0.235c-0.559-0.41-0.969-0.705-1.408-0.705
	c-0.353,0-0.705,0.206-0.823,0.793V76.748z"/>
<path fill="#ADE0EE" d="M285.219,75.163c0,3.17,0.236,3.376,2.702,3.552v1.145h-10.275v-1.145c2.349-0.176,2.583-0.381,2.583-3.552
	V62.307h-0.5c-1.966,0-2.758,0.352-3.228,0.88c-0.353,0.441-0.705,1.204-1.087,2.847h-1.232c0.117-2.465,0.294-4.491,0.352-5.987
	h0.911c0.44,0.675,0.732,0.733,1.526,0.733h11.712c0.763,0,0.909-0.175,1.379-0.733h0.91c0.028,1.232,0.176,3.727,0.322,5.9
	l-1.291,0.087c-0.44-1.761-0.763-2.524-1.204-3.023c-0.5-0.528-1.468-0.704-2.877-0.704h-0.705V75.163z"/>
<path fill="#ADE0EE" d="M308.142,79.859h-7.543v-1.145c1.204-0.176,1.32-0.294,1.32-1.967v-5.606c0-1.732-0.792-2.377-1.79-2.377
	c-0.734,0-1.234,0.381-1.673,0.734v7.25c0,1.673,0.147,1.791,1.145,1.967v1.145h-7.661v-1.145c1.761-0.176,1.908-0.294,1.908-1.967
	v-13.59c0-1.732-0.058-1.761-1.82-1.879v-1.057c1.615-0.205,3.935-0.616,6.429-1.027v8.776c1.027-0.763,2.202-1.614,3.697-1.614
	c2.76,0,4.375,1.673,4.375,4.52v5.871c0,1.673,0.146,1.791,1.614,1.967V79.859z"/>
<path fill="#ADE0EE" d="M315.742,76.748c0,1.644,0.147,1.791,2.172,1.967v1.145h-8.57v-1.145c1.644-0.176,1.791-0.323,1.791-1.967
	v-6.311c0-1.791-0.058-1.82-1.731-2.025v-0.998c2.496-0.236,4.374-0.646,6.194-1.057v2.554h0.058
	c0.323-0.529,0.734-1.145,1.203-1.644c0.5-0.529,1.116-0.91,1.939-0.91c1.232,0,2.054,0.939,2.054,2.084
	c0,1.791-1.321,2.613-2.114,2.613c-0.323,0-0.558-0.088-0.763-0.235c-0.558-0.41-0.969-0.705-1.408-0.705
	c-0.352,0-0.705,0.206-0.823,0.793V76.748z"/>
<path fill="#ADE0EE" d="M335.643,73.137c0,4.696-3.494,7.074-7.104,7.074c-4.608,0-7.016-3.288-7.016-6.634
	c0-4.726,3.611-7.221,7.221-7.221C333.088,66.357,335.643,69.41,335.643,73.137z M330.505,74.899c0-5.254-0.939-7.132-2.171-7.132
	c-0.91,0-1.674,1.467-1.674,4.226c0,3.522,0.764,6.81,2.26,6.81C329.683,78.802,330.505,78.039,330.505,74.899z"/>
<path fill="#ADE0EE" d="M346.707,69.762c0-1.086-0.293-1.35-0.91-1.438l-0.763-0.117v-1.145c2.171-0.088,4.695-0.382,6.28-0.558
	v9.892c0,1.262,0.118,1.584,1.057,1.584h0.763v1.145c-1.995,0.265-3.904,0.558-6.222,1.086l-0.206-0.147v-1.908l-1.702,1.057
	c-1.057,0.646-1.762,0.998-2.143,0.998c-2.848,0-4.228-1.673-4.228-3.962v-6.487c0-1.086-0.293-1.321-0.939-1.438l-0.617-0.117
	v-1.145c1.791-0.088,4.579-0.382,6.164-0.558v8.982c0,1.526,0.734,2.143,1.586,2.143c0.469,0,1.262-0.323,1.878-0.91V69.762z"/>
<path fill="#ADE0EE" d="M355.453,85.055c-0.969-0.705-1.409-1.732-1.409-2.554c0-0.587,0.206-0.998,0.646-1.321
	c0.499-0.352,1.965-0.968,2.495-1.203c-1.026-0.412-1.761-1.057-2.172-1.673c-0.294-0.411-0.499-1.086-0.44-1.673
	c1.439-0.558,2.613-1.204,3.318-1.585v-0.058c-2.378-0.44-3.581-2.173-3.581-3.845c0-3.199,3.082-4.785,6.135-4.785
	c1.261,0,2.436,0.264,3.375,0.705c1.409-0.059,3.318-0.265,4.168-0.352l0.235,0.293c-0.117,0.616-0.674,1.556-1.116,1.878
	l-1.584-0.176c0.44,0.587,0.646,1.32,0.646,1.966c0,2.994-2.877,4.609-5.988,4.609c-0.206,0-0.352,0-0.587-0.03
	c-0.294,0.118-0.559,0.382-0.559,0.646c0,0.381,0.294,0.851,1.557,0.851c0.469,0,1.468-0.029,2.525-0.029
	c1.643,0,4.49,0.528,4.49,3.816c0,3.111-3.257,5.752-7.603,5.752C357.977,86.287,356.451,85.759,355.453,85.055z M362.556,80.564
	c-0.704-0.235-1.292-0.293-2.202-0.293c-0.997,0-1.555,0.118-1.82,0.411c-0.265,0.265-0.439,0.705-0.439,1.263
	c0,1.702,1.408,2.67,3.228,2.67c1.792,0,2.641-1.027,2.641-2.289C363.964,81.504,363.319,80.799,362.556,80.564z M360.501,73.901
	c0.852,0,1.438-0.88,1.438-2.847c0-1.732-0.763-3.347-1.76-3.347c-0.763,0-1.379,0.968-1.379,2.759
	C358.799,72.58,359.738,73.901,360.501,73.901z"/>
<path fill="#ADE0EE" d="M384.479,79.859h-7.543v-1.145c1.205-0.176,1.322-0.294,1.322-1.967v-5.606c0-1.732-0.793-2.377-1.791-2.377
	c-0.735,0-1.234,0.381-1.673,0.734v7.25c0,1.673,0.146,1.791,1.144,1.967v1.145h-7.661v-1.145c1.761-0.176,1.909-0.294,1.909-1.967
	v-13.59c0-1.732-0.059-1.761-1.82-1.879v-1.057c1.615-0.205,3.933-0.616,6.429-1.027v8.776c1.027-0.763,2.201-1.614,3.698-1.614
	c2.758,0,4.374,1.673,4.374,4.52v5.871c0,1.673,0.146,1.791,1.612,1.967V79.859z"/>
<path fill="#ADE0EE" d="M393.283,73.813c0.616,1.702,2.348,4.96,5.224,4.96c1.526,0,2.7-0.998,2.7-2.906
	c0-1.731-1.145-2.701-2.935-3.522l-0.44-0.205c-2.406-1.116-5.137-2.642-5.137-5.783c0-3.317,2.406-6.018,7.015-6.018
	c0.911,0,1.851,0.118,2.7,0.353c0.677,0.176,1.146,0.294,1.526,0.411c0.119,1.145,0.324,2.583,0.647,4.579l-1.291,0.206
	c-0.646-1.938-1.674-4.021-3.993-4.021c-1.496,0-2.553,1.145-2.553,2.553c0,1.468,1.144,2.319,3.022,3.17l0.646,0.293
	c2.7,1.233,5.02,2.73,5.02,6.164c0,3.61-2.906,6.252-7.457,6.252c-1.174,0-2.377-0.235-3.169-0.499
	c-0.881-0.294-1.498-0.529-1.85-0.705c-0.234-1.35-0.617-2.936-0.969-4.902L393.283,73.813z"/>
<path fill="#ADE0EE" d="M406.402,85.935V84.82c1.674-0.176,1.82-0.352,1.82-1.966v-12.65c0-1.644-0.058-1.673-1.849-1.85v-0.939
	c2.054-0.294,3.963-0.822,6.458-1.35v1.907l1.995-1.32c0.266-0.177,0.647-0.294,1.234-0.294c3.698,0,5.635,2.936,5.635,5.841
	c0,4.403-3.464,7.309-7.485,8.013c-0.234,0-0.939-0.088-1.379-0.265v2.906c0,1.615,0.146,1.791,2.289,1.966v1.116H406.402z
	 M412.831,77.452c0.588,0.646,1.438,0.998,1.995,0.998c0.647,0,2.084-0.557,2.084-5.048c0-3.581-1.731-4.55-2.67-4.55
	c-0.441,0-0.969,0.146-1.409,0.528V77.452z"/>
<path fill="#ADE0EE" d="M437.69,73.137c0,4.696-3.493,7.074-7.103,7.074c-4.609,0-7.017-3.288-7.017-6.634
	c0-4.726,3.611-7.221,7.221-7.221C435.136,66.357,437.69,69.41,437.69,73.137z M432.553,74.899c0-5.254-0.939-7.132-2.171-7.132
	c-0.91,0-1.673,1.467-1.673,4.226c0,3.522,0.763,6.81,2.26,6.81C431.731,78.802,432.553,78.039,432.553,74.899z"/>
<path fill="#ADE0EE" d="M445.496,76.748c0,1.644,0.146,1.791,2.172,1.967v1.145h-8.571v-1.145c1.645-0.176,1.792-0.323,1.792-1.967
	v-6.311c0-1.791-0.059-1.82-1.731-2.025v-0.998c2.495-0.236,4.374-0.646,6.193-1.057v2.554h0.059
	c0.323-0.529,0.734-1.145,1.203-1.644c0.5-0.529,1.115-0.91,1.938-0.91c1.233,0,2.054,0.939,2.054,2.084
	c0,1.791-1.32,2.613-2.114,2.613c-0.322,0-0.558-0.088-0.763-0.235c-0.558-0.41-0.969-0.705-1.408-0.705
	c-0.352,0-0.704,0.206-0.822,0.793V76.748z"/>
<path fill="#ADE0EE" d="M458.087,75.398c0,2.055,0.822,2.465,1.35,2.465c0.411,0,0.91-0.088,1.409-0.352l0.411,1.028l-2.817,1.32
	c-0.616,0.294-0.882,0.353-1.204,0.353c-2.319,0-3.757-0.998-3.757-3.846v-7.954h-1.79l-0.294-0.469l0.939-1.233h1.145v-1.938
	l4.11-2.172l0.499,0.265v3.845h2.642c0.38,0.323,0.322,1.467-0.206,1.702h-2.437V75.398z"/>
<path fill="#ADE0EE" d="M470.737,70.643c-1.028-2.202-2.231-2.818-3.171-2.818c-0.763,0-1.349,0.587-1.349,1.35
	c0,0.881,0.997,1.468,1.907,1.791c2.554,0.88,4.462,2.025,4.462,4.579c0,3.288-3.17,4.667-5.753,4.667
	c-1.79,0-3.493-0.705-4.081-1.292c-0.175-0.5-0.528-2.73-0.528-3.845l1.085-0.176c0.823,1.937,2.437,3.845,3.876,3.845
	c1.027,0,1.615-0.675,1.615-1.497c0-1.027-0.793-1.673-2.114-2.172c-1.468-0.558-4.051-1.614-4.051-4.168
	c0-2.642,2.055-4.521,5.254-4.55c1.262-0.029,2.523,0.294,3.229,0.646c0.352,0.704,0.763,2.964,0.792,3.375L470.737,70.643z"/>
<path fill="#FFFFFF" d="M201.985,463.772h-21.311c-0.355,0-0.724-0.11-1.008-0.372l0,0c-0.287-0.261-0.445-0.661-0.44-1.078l0,0
	v-1.786c0.013-0.021-0.088-0.275-0.436-0.554l0,0c-0.334-0.281-0.841-0.584-1.395-0.848l0,0c-1.096-0.529-2.441-0.907-2.979-0.896
	l0,0c-1.443-0.011-2.67,0.914-3.968,1.968l0,0c-1.287,1.029-2.634,2.207-4.461,2.22l0,0c-2.326-0.002-5.382-0.647-6.362-0.867l0,0
	l-5.989,6.191c-0.107,0.109-0.253,0.174-0.407,0.174l0,0c-2.951-0.019-5.554,1.379-12.588,1.384l0,0
	c-1.271-0.005-2-0.556-2.68-0.773l0,0c-1.308-0.448-2.143-0.421-3.056-0.758l0,0c-0.932-0.353-1.667-1.124-2.496-2.826l0,0
	c-0.675-1.443-3.571-3.537-3.54-9.43l0,0c0.012-3.007,1.719-5.318,1.746-5.368l0,0c0.107-0.148,0.276-0.233,0.458-0.233l0,0
	c2.394-0.028,3.148-1.294,4.382-4.417l0,0c0.082-0.22,0.294-0.367,0.527-0.367l0,0c1.016,0.011,2.053-0.645,2.821-1.359l0,0
	c0.606-0.56,1.029-1.112,1.18-1.323l0,0c0.253-1.269,0.359-2.306,0.359-3.211l0,0c0-2.154-0.591-3.611-1.372-5.725l0,0
	c-0.607-1.659-0.965-4.168-1.4-7.029l0,0c-0.317-2.135-1.264-4.587-1.272-7.099l0,0c0.077-2.537,3.005-5.094,4.318-6.596l0,0
	c0.361-0.329,0.379-1.338,0.556-2.48l0,0c0.187-0.936,0.415-0.917,0.415-1.937l0,0c0.002-0.958-0.313-3.425-0.686-6.084l0,0
	c-0.44-3.134-1.045-6.605-1.624-8.378l0,0c-1.448-4.464-2.838-6.021-3.706-8.447l0,0c-0.688-1.954-1.124-3.233-1.988-4.457l0,0
	c-0.793-1.18-1.764-1.145-3.213-2.688l0,0c-1.017-1.153-1.632-3.112-3.161-6.013l0,0h-16.109c-1.777-0.149-2.032-2.128-2.229-2.718
	l0,0c-0.23-0.953-0.52-2.268-0.52-3.661l0,0c0.077-2.207,2.017-5.052,3.591-5.935l0,0c1.672-0.824,3.582-0.639,6.853-1.366l0,0
	c2.152-0.458,4.492-1.989,8.239-4.149l0,0c0.758-0.45,0.929-0.806,1.232-1.362l0,0c0.284-0.553,0.675-1.292,1.663-1.95l0,0
	c0.709-0.479,1.705-0.873,3.146-1.296l0,0c1.554-0.443,4.856-1.53,6.643-1.546l0,0c1.152,0.098,1.802,1.078,2.94,1.917l0,0
	c1.104,0.866,2.455,1.674,4.349,1.677l0,0c0.302,0,0.614-0.021,0.944-0.065l0,0c0.205-0.027,0.41,0.06,0.533,0.228l0,0l2.538,3.489
	c5.704,0.659,7.178,3.927,9.175,3.769l0,0c0.215,0,0.445-0.026,0.704-0.087l0,0c0.169-0.042,0.345-0.002,0.484,0.105l0,0
	c0.136,0.107,0.215,0.271,0.215,0.445l0,0c0,2.693-0.688,4.838-0.696,4.871l0,0c-0.092,0.284-0.386,0.451-0.678,0.38l0,0
	c-2.002-0.51-2.747-1.895-3.866-2.898l0,0c-1.124-1.017-2.667-1.94-6.571-1.956l0,0c-1.95-0.002-3.716,0.929-4.991,2.117l0,0
	c-1.283,1.167-2.019,2.641-1.997,3.36l0,0c0.028,1.649,0.294,2.069,1.103,2.955l0,0c0.827,0.868,2.232,2.03,4.178,4.569l0,0
	c1.042,1.356,1.472,2.641,1.831,4.113l0,0c0.338,1.423,1.451,2.854,3.168,5.293l0,0c0.617,0.883,1.091,1.779,1.546,2.791l0,0
	c0.687,1.638,4.354,4.151,6.855,8.024l0,0c0.934,1.448,0.926,2.8,0.96,4.298l0,0c-0.016,1.265,1.167,2.75,1.172,6.313l0,0
	c-0.01,0.883-0.415,1.883-0.704,2.64l0,0c-0.236,0.712-0.962,1.403-2.042,1.365l0,0h-3.044c-0.034,10.653-1.079,9.505-1.09,12.784
	l0,0c7.377,11.632,9.083,16.954,16.333,22.761l0,0c10.541,0.024,8.732,1.523,16.671,1.509l0,0c5.457,0.003,10.033-1.281,11.35-1.69
	l0,0v-1.101c0-0.193,0.095-0.369,0.256-0.474l0,0l7.303-4.785l0.31-0.091h7.024c0.336-0.262,1.234-0.983,2.132-1.984l0,0
	c1.144-1.265,2.227-2.959,2.214-4.533l0,0c0-0.094-0.004-0.187-0.011-0.28l0,0c-0.714,0.431-1.869,0.988-3.123,1.005l0,0
	c-1.114-0.003-2.081-0.83-2.091-1.948l0,0c0.082-1.761,2.439-5.242,2.434-10.073l0,0c0.046-0.613-0.663-1.568-0.668-3.824l0,0
	c0.141-1.792,0.794-2.979,1.859-3.601l0,0c1.051-0.615,2.329-0.688,3.742-0.693l0,0c1.638,0.147,2.706,2.208,2.764,4.787l0,0
	c0,0.338-0.021,0.688-0.068,1.048l0,0c0.137,0.144,0.359,0.357,0.649,0.572l0,0c0.506,0.383,1.188,0.732,1.855,0.726l0,0
	c2.908,0.06,8.383-2.583,9.269-3.798l0,0c0.581-0.723,0.868-1.437,1.407-2.083l0,0c0.541-0.664,1.416-1.104,2.752-1.083l0,0
	c1.257-0.007,2.112,0.622,2.693,1.152l0,0c0.586,0.563,0.993,0.902,1.167,0.859l0,0c0.652,0.089,1.942-1.316,3.307-1.726l0,0
	c1.272-0.312,2.378-0.356,3.049-0.526l0,0c0.68-0.235,0.742-0.212,0.801-0.873l0,0v-6.311l-3.197-3.193h-8.029
	c-0.151,0-0.292-0.06-0.4-0.167l0,0c-0.107-0.105-0.166-0.249-0.166-0.399l0,0v-2.896c0-0.149,0.061-0.295,0.166-0.4l0,0
	l2.813-2.815v-3.622c0-0.144,0.051-0.282,0.148-0.385l0,0l1.646-1.785l-2.613-2.612l-3.965,3.961
	c-0.105,0.108-0.248,0.167-0.399,0.167l0,0h-1.78l-2.813,2.816c-0.138,0.135-0.337,0.195-0.53,0.15l0,0
	c-2.268-0.445-2.99-2.062-2.91-3.81l0,0c0.002-1.245,0.207-2.688,0.207-4.38l0,0c0-0.23,0.141-0.44,0.356-0.525l0,0
	c4.011-1.628,5.196-3.602,6.023-5.448l0,0c0.713-1.614,1.11-3.378,2.899-4.279l0,0c-1.001-1.254-3.553-3.449-5.001-4.285l0,0
	c-4.331,0.054-6.018,1.295-7.63,3.305l0,0c-0.113,0.144-0.287,0.222-0.469,0.215l0,0l-7.806-0.333
	c-0.183-0.008-0.346-0.101-0.448-0.253l0,0c-0.1-0.152-0.121-0.34-0.057-0.51l0,0c1.496-3.791,9.064-8.447,21.266-10.184l0,0
	c0.129-0.019,0.261,0.009,0.372,0.076l0,0c5.12,3.126,10.806,8.918,11.534,9.665l0,0c8.887,3.991,6.985,7.534,8.592,11.767l0,0
	l0.003,0.004c0.108,0.291-0.039,0.619-0.33,0.729l0,0c-0.294,0.111-0.623-0.036-0.733-0.33l0,0
	c-1.889-4.961,0.531-7.134-8.098-11.182l0,0l-0.174-0.123c-0.013-0.003-5.984-6.22-11.216-9.457l0,0
	c-10.919,1.519-17.965,5.744-19.801,8.705l0,0l6.654,0.285c1.702-2.109,4.002-3.542,8.49-3.514l0,0l0.279,0.074
	c1.887,1.092,5.092,3.817,5.931,5.35l0,0c0.079,0.148,0.086,0.323,0.021,0.478l0,0c-0.064,0.156-0.192,0.272-0.351,0.322l0,0
	c-1.756,0.551-2.004,1.898-2.891,3.933l0,0c-0.831,1.936-2.298,4.221-6.287,5.9l0,0c-0.026,1.609-0.205,2.96-0.202,3.996l0,0
	c0.075,1.529,0.187,2.138,1.742,2.623l0,0l2.743-2.747c0.105-0.104,0.251-0.165,0.4-0.165l0,0h1.779l4.201-4.198
	c0.22-0.221,0.579-0.221,0.801,0l0,0l3.399,3.401c0.215,0.212,0.22,0.56,0.016,0.783l0,0l-1.866,2.02v3.64
	c0,0.15-0.059,0.291-0.167,0.399l0,0l-2.813,2.813v2.093h7.702c0.148,0,0.294,0.061,0.399,0.167l0,0l3.524,3.525
	c0.108,0.107,0.167,0.251,0.167,0.401l0,0v6.546c0.06,1.131-0.808,1.832-1.66,1.973l0,0c-0.864,0.208-1.9,0.242-3.052,0.526l0,0
	c-0.832,0.13-2.045,1.671-3.575,1.76l0,0c-0.937-0.043-1.395-0.708-1.925-1.151l0,0c-0.54-0.476-1.059-0.854-1.935-0.862l0,0
	c-1.157,0.021-1.51,0.265-1.889,0.683l0,0c-0.381,0.435-0.706,1.198-1.384,2.058l0,0c-1.431,1.694-6.684,4.167-10.155,4.226l0,0
	c-2.091-0.044-3.492-1.86-3.542-1.885l0,0c-0.103-0.128-0.148-0.293-0.12-0.454l0,0c0.064-0.395,0.095-0.777,0.095-1.142l0,0
	c0-1.117-0.282-2.084-0.653-2.74l0,0c-0.369-0.671-0.842-0.943-0.98-0.914l0,0c-1.372-0.007-2.468,0.11-3.164,0.533l0,0
	c-0.686,0.417-1.157,1.119-1.308,2.677l0,0c-0.008,1.968,0.627,2.544,0.673,3.775l0,0c-0.004,5.071-2.514,9.145-2.434,10.073l0,0
	c0,0.406,0.386,0.811,0.957,0.814l0,0c0.724,0.004,1.536-0.303,2.147-0.625l0,0c0.618-0.323,1.014-0.634,1.014-0.638l0,0
	c0.149-0.115,0.34-0.148,0.517-0.094l0,0c0.177,0.056,0.314,0.192,0.374,0.369l0,0c0.148,0.466,0.215,0.937,0.215,1.397l0,0
	c-0.08,4.124-4.938,7.482-4.954,7.541l0,0l-0.332,0.111l-7.052-0.004l-6.903,4.524v1.207c0,0.242-0.154,0.456-0.379,0.536l0,0
	c-0.036,0.01-5.411,1.876-12.102,1.879l0,0c-8.296-0.016-6.314-1.517-16.871-1.513l0,0c-0.128,0-0.25-0.044-0.351-0.123l0,0
	c-7.656-6.082-9.392-11.616-16.827-23.303l0,0l-0.089-0.302c0.025-4.016,1.09-2.122,1.092-13.512l0,0
	c0-0.149,0.06-0.294,0.164-0.401l0,0c0.108-0.105,0.251-0.164,0.402-0.164l0,0h3.609c0.691-0.04,0.765-0.198,0.988-0.648l0,0
	c0.289-0.722,0.637-1.715,0.627-2.226l0,0c0.007-3.32-1.088-4.426-1.173-6.287l0,0c-0.038-1.548-0.041-2.552-0.78-3.711l0,0
	c-2.352-3.704-5.882-5.964-6.935-8.168l0,0c-0.44-0.979-0.875-1.8-1.441-2.609l0,0c-1.684-2.413-2.895-3.882-3.343-5.674l0,0
	c-0.353-1.429-0.709-2.486-1.63-3.69l0,0c-1.894-2.473-3.187-3.528-4.095-4.48l0,0c-0.929-0.935-1.444-1.943-1.415-3.736l0,0
	c0.084-2.479,3.486-6.526,8.119-6.609l0,0c4.068-0.016,6.048,1.054,7.339,2.254l0,0c1.133,1.058,1.698,1.994,2.84,2.46l0,0
	c0.166-0.666,0.422-1.881,0.486-3.317l0,0c-0.086,0.006-0.173,0.009-0.257,0.009l0,0c-3.148-0.159-4.029-3.331-9.538-3.801l0,0
	c-0.161-0.016-0.312-0.1-0.406-0.231l0,0l-2.491-3.424c-0.26,0.025-0.512,0.035-0.755,0.035l0,0c-2.237,0-3.87-0.987-5.05-1.918l0,0
	c-1.142-0.958-2.071-1.771-2.239-1.675l0,0c-1.403-0.016-4.787,1.045-6.326,1.5l0,0c-1.39,0.405-2.298,0.784-2.828,1.147l0,0
	c-0.793,0.548-0.996,0.973-1.295,1.536l0,0c-0.284,0.56-0.688,1.268-1.669,1.82l0,0c-3.721,2.133-6.082,3.725-8.562,4.275l0,0
	c-3.396,0.727-5.382,0.625-6.581,1.268l0,0c-1.021,0.442-3.048,3.439-2.972,4.924l0,0c0,1.236,0.264,2.468,0.487,3.39l0,0
	c0.074,0.314,0.209,0.844,0.428,1.25l0,0c0.232,0.428,0.46,0.613,0.701,0.607l0,0h16.449c0.209,0,0.401,0.116,0.501,0.3l0,0
	c1.653,3.128,2.388,5.272,3.156,6.08l0,0c1.124,1.279,2.158,1.238,3.302,2.799l0,0c0.981,1.393,1.447,2.801,2.13,4.734l0,0
	c0.755,2.16,2.219,3.878,3.716,8.474l0,0c0.625,1.932,1.219,5.399,1.667,8.567l0,0c0.376,2.685,0.694,5.109,0.697,6.244l0,0
	c0,1.256-0.356,1.594-0.433,2.137l0,0c-0.2,0.95-0.046,2.114-0.832,3.043l0,0c-1.397,1.474-4.098,4.216-4.021,5.833l0,0
	c-0.008,2.22,0.901,4.626,1.257,6.926l0,0c0.432,2.86,0.806,5.361,1.346,6.81l0,0c0.766,2.079,1.441,3.734,1.441,6.117l0,0
	c0,1.024-0.126,2.176-0.405,3.551l0,0L140.983,443c-0.051,0.02-1.859,2.915-4.597,3.244l0,0c-1.062,2.802-2.297,4.698-5.005,4.808
	l0,0c-0.145,0.228-0.376,0.62-0.61,1.143l0,0c-0.387,0.863-0.771,2.05-0.768,3.33l0,0c0.03,5.562,2.439,6.997,3.424,8.931l0,0
	c0.812,1.628,1.306,2.038,1.887,2.269l0,0c0.599,0.244,1.553,0.255,3.008,0.742l0,0c0.929,0.328,1.405,0.717,2.318,0.712l0,0
	c6.714,0.002,9.127-1.301,12.344-1.381l0,0l6.05-6.252c0.138-0.144,0.34-0.205,0.537-0.156l0,0c0-0.003,0.96,0.225,2.237,0.453l0,0
	c1.282,0.227,2.887,0.458,4.177,0.456l0,0c1.274,0.013,2.447-0.903,3.75-1.969l0,0c1.292-1.039,2.729-2.211,4.679-2.221l0,0
	c0.894,0.013,2.231,0.427,3.469,1.008l0,0c1.193,0.63,2.352,1.211,2.472,2.423l0,0v1.786c0.039,0.297,0.054,0.267,0.317,0.314l0,0
	h21.399l0.182,0.031c16.554,5.555,19.397,7.641,34.438,7.648l0,0c15.115,0.004,23.856-9.521,27.319-16.061l0,0l0.172-0.197
	l7.052-5.038l0.296-0.103c13.846-0.752,19.96-2.355,22.101-3.087l0,0c0.714-0.244,0.955-0.374,0.955-0.374l0,0l0.263-0.067
	c1.441,0,2.796,0.003,4.074,0.003l0,0c10.776-0.03,15.702-0.359,19.861-7.4l0,0c0.103-0.174,0.289-0.279,0.491-0.279l0,0
	c6.779,0.006,11.256,2.829,18.042,5.498l0,0c8.014,3.17,23.157,4.578,42.762,4.572l0,0c4.243,0,7.776-0.659,8.624-0.829l0,0
	l3.775-4.749l0.198-0.156l3.377-1.628c-0.002-0.004,0.063-0.03,0.233-0.158l0,0c0.172-0.128,0.428-0.343,0.744-0.67l0,0
	c0.629-0.658,1.492-1.774,2.367-3.588l0,0c1.747-3.63,3.532-10.06,3.532-21.141l0,0c0-7.1-1.249-13.537-2.5-18.194l0,0
	c-1.011-3.773-2.017-6.358-2.363-7.209l0,0c-14.948-1.483-15.501-2.612-22.645-2.607l0,0c-4.712,0-9.909,0.438-15.133,1.092l0,0
	c-4.272,0.538-7.617,0.835-10.89,1.218l0,0c-4.95,0.584-9.014,2.295-17.846,3.689l0,0l-2.004,2.708l-0.284,0.205
	c-0.031,0.008-5.133,1.616-10.858,1.618l0,0c-1.406,0-2.848-0.101-4.263-0.342l0,0l-0.215-0.084
	c-3.655-2.385-9.5-6.441-21.342-6.455l0,0c-7.788,0.016-10.984,1.767-13.9,3.801l0,0l-0.325,0.104
	c-5.03,0.011-7.111-0.799-9.094-1.708l0,0c-1.977-0.894-3.851-1.858-9.003-2.362l0,0c-0.314-0.032-0.542-0.308-0.511-0.621l0,0
	c0.027-0.312,0.305-0.54,0.619-0.511l0,0c5.25,0.501,7.41,1.572,9.364,2.463l0,0c1.919,0.862,3.642,1.581,8.451,1.604l0,0
	c2.967-2.082,6.591-3.917,14.4-3.901l0,0c11.986-0.013,18.205,4.166,21.863,6.572l0,0c1.304,0.216,2.644,0.306,3.957,0.306l0,0
	c4.916,0.002,9.415-1.24,10.343-1.514l0,0l2.03-2.743c0.089-0.121,0.222-0.2,0.371-0.223l0,0c8.892-1.382,12.915-3.107,18.116-3.729
	l0,0c3.297-0.389,6.631-0.684,10.878-1.219l0,0c5.258-0.66,10.493-1.102,15.276-1.102l0,0c7.408,0.005,7.906,1.162,23.093,2.647l0,0
	c0.204,0.02,0.381,0.15,0.464,0.34l0,0c0.015,0.038,5.081,11.69,5.083,26.157l0,0c0.016,22.388-7.249,26.449-7.498,26.57l0,0
	l-3.277,1.577l-3.824,4.809c-0.081,0.104-0.193,0.174-0.321,0.204l0,0c-0.026,0.004-4.057,0.893-9.061,0.895l0,0
	c-19.674-0.007-34.846-1.377-43.178-4.651l0,0c-6.791-2.684-11.063-5.336-17.306-5.418l0,0c-4.37,7.268-10.145,7.712-20.671,7.679
	l0,0c-1.241,0-2.556-0.002-3.948-0.002l0,0c-0.908,0.41-6.381,2.583-23.217,3.516l0,0l-6.807,4.861
	c-3.63,6.796-12.713,16.547-28.26,16.549l0,0c-0.026,0-0.053,0-0.079,0l0,0C221.539,471.451,218.306,469.263,201.985,463.772
	L201.985,463.772z"/>
<path fill="#ADE0EE" d="M132.408,464.954c-0.675-1.443-3.571-3.537-3.54-9.43c0.012-3.007,1.719-5.318,1.746-5.368
	c0.107-0.148,0.276-0.233,0.458-0.233c2.394-0.028,3.148-1.294,4.382-4.417c0.043-0.116,0.124-0.208,0.224-0.271v-59.489
	c-0.035-0.093-0.075-0.18-0.109-0.274c-0.688-1.954-1.124-3.233-1.988-4.457c-0.793-1.18-1.764-1.145-3.213-2.688
	c-1.017-1.153-1.632-3.112-3.161-6.013h-16.109c-1.777-0.149-2.032-2.128-2.229-2.718c-0.23-0.953-0.52-2.268-0.52-3.661
	c0.077-2.207,2.017-5.052,3.591-5.935c1.672-0.824,3.582-0.639,6.853-1.366c2.152-0.458,4.492-1.989,8.239-4.149
	c0.758-0.45,0.929-0.806,1.232-1.362c0.284-0.553,0.675-1.292,1.663-1.95c0.709-0.479,1.705-0.873,3.146-1.296
	c0.645-0.184,1.592-0.477,2.605-0.759v-39.607H64.098v162.334c10.096,7.103,21.157,13.56,32.859,19.624
	c12.371,6.402,25.423,12.346,38.722,18.149v-41.622c-0.259-0.056-0.515-0.122-0.774-0.217
	C133.972,467.427,133.237,466.656,132.408,464.954z"/>
<path fill="#ADE0EE" d="M364.318,309.512v76.837c3.831-0.388,7.589-0.629,11.103-0.629c7.408,0.005,7.906,1.162,23.093,2.647
	c0.204,0.02,0.381,0.15,0.464,0.34c0.015,0.038,5.081,11.69,5.083,26.157c0.016,22.388-7.249,26.449-7.498,26.57l-3.277,1.577
	l-3.824,4.809c-0.081,0.104-0.193,0.174-0.321,0.204c-0.026,0.004-4.057,0.893-9.061,0.895c-5.649-0.002-10.911-0.12-15.762-0.36
	v61.064c13.299-5.805,26.351-11.749,38.722-18.151c11.702-6.064,22.763-12.521,32.858-19.623V309.512H364.318z"/>
<path fill="#ADE0EE" d="M298.924,446.527c-1.241,0-2.556-0.002-3.948-0.002c-0.908,0.41-6.381,2.583-23.217,3.516l-6.807,4.861
	c-0.216,0.404-0.454,0.82-0.708,1.243v100.92c21.768-13.402,46.561-24.451,71.58-35.196v-78.043
	c-6.167-2.526-10.332-4.899-16.229-4.977C315.225,446.116,309.45,446.56,298.924,446.527z"/>
<path fill="#ADE0EE" d="M278.186,393.272c2.967-2.082,6.591-3.917,14.4-3.901c11.986-0.013,18.205,4.166,21.863,6.572
	c1.304,0.216,2.644,0.306,3.957,0.306c4.916,0.002,9.415-1.24,10.343-1.514l2.03-2.743c0.089-0.121,0.222-0.2,0.371-0.223
	c1.728-0.269,3.269-0.551,4.675-0.835v-81.423h-71.58v80.261c2.614,0.544,4.108,1.264,5.491,1.896
	C271.655,392.531,273.378,393.249,278.186,393.272z"/>
<path fill="#ADE0EE" d="M173.066,443.589c10.541,0.024,8.732,1.523,16.671,1.509c5.457,0.003,10.033-1.281,11.35-1.69v-1.101
	c0-0.193,0.095-0.369,0.256-0.474l7.303-4.785l0.31-0.091h7.024c0.336-0.262,1.234-0.983,2.132-1.984
	c1.144-1.265,2.227-2.959,2.214-4.533c0-0.094-0.004-0.187-0.011-0.28c-0.714,0.431-1.869,0.988-3.123,1.005
	c-1.114-0.003-2.081-0.83-2.091-1.948c0.082-1.761,2.439-5.242,2.434-10.073c0.046-0.613-0.663-1.568-0.668-3.824
	c0.141-1.792,0.794-2.979,1.859-3.601c1.051-0.615,2.329-0.688,3.742-0.693c1.638,0.147,2.706,2.208,2.764,4.787
	c0,0.338-0.021,0.688-0.068,1.048c0.137,0.144,0.359,0.357,0.649,0.572c0.506,0.383,1.188,0.732,1.855,0.726
	c2.267,0.046,6.085-1.547,8.082-2.829v-25.118l-2.226,2.227c-0.138,0.135-0.337,0.195-0.53,0.15c-2.268-0.445-2.99-2.062-2.91-3.81
	c0.002-1.245,0.207-2.688,0.207-4.38c0-0.23,0.141-0.44,0.356-0.525c2.808-1.14,4.217-2.449,5.103-3.765v-9.453
	c-0.431-0.319-0.838-0.597-1.181-0.794c-4.331,0.054-6.018,1.295-7.63,3.305c-0.113,0.144-0.287,0.222-0.469,0.215l-7.806-0.333
	c-0.183-0.008-0.346-0.101-0.448-0.253c-0.1-0.152-0.121-0.34-0.057-0.51c1.338-3.393,7.555-7.472,17.591-9.538v-53.235h-71.58
	v123.647C166.708,437.267,169.027,440.355,173.066,443.589z"/>
<path fill="#ADE0EE" d="M180.674,463.772c-0.355,0-0.724-0.11-1.008-0.372c-0.287-0.261-0.445-0.661-0.44-1.078v-1.786
	c0.013-0.021-0.088-0.275-0.436-0.554c-0.334-0.281-0.841-0.584-1.395-0.848c-1.096-0.529-2.441-0.907-2.979-0.896
	c-1.443-0.011-2.67,0.914-3.968,1.968c-1.287,1.029-2.634,2.207-4.461,2.22c-0.574-0.001-1.193-0.041-1.814-0.104v59.542
	c25.019,10.745,49.812,21.794,71.58,35.194v-85.615c-14.336-0.084-17.765-2.291-33.767-7.675H180.674z"/>
<circle cx="194.617" cy="393.991" r="29.443"/>
<path fill="#FFFFFF" d="M198.828,420.529c-4.978-0.012-9.049-0.513-9.776-0.608c-0.128-0.098-0.377-0.294-0.716-0.588
	c-1.485-1.283-4.525-4.363-5.544-8.362c2.883-2.489,4.854-4.928,5.417-5.653c1.407,0.113,2.8,0.162,4.126,0.162
	c4.195,0,7.72-0.457,8.898-0.628c1.28,3.52,4.145,7.567,5.011,8.756c-0.363,0.379-1.059,1.094-2.005,2.02
	C202.848,416.985,200.938,418.773,198.828,420.529z"/>
<path fill="#FFFFFF" d="M171.931,404.687c-0.063-0.147-0.419-0.998-0.856-2.33c-0.469-1.429-1.02-3.393-1.371-5.556
	c1.169-1.926,3.466-3.947,5.491-5.461c1.657-1.242,3.116-2.152,3.642-2.471c1.587,0.636,3.026,1.34,4.077,1.894
	c0.741,0.39,1.281,0.699,1.56,0.862c0.572,6.958,2.439,11.903,2.924,13.094c-0.229,0.295-0.686,0.866-1.353,1.619
	c-0.952,1.076-2.315,2.499-3.974,3.925c-3.684-0.459-6.213-1.847-7.831-3.13c-0.823-0.655-1.41-1.28-1.789-1.74
	c-0.188-0.229-0.324-0.417-0.412-0.543C171.974,404.757,171.947,404.712,171.931,404.687z"/>
<path fill="#FFFFFF" d="M218.516,383.391c0.057,0.596,0.086,1.152,0.086,1.668c0,2.22-0.479,3.721-0.941,4.66
	c-0.233,0.471-0.461,0.801-0.628,1.01c-0.061,0.078-0.109,0.133-0.149,0.177c-4.753,0.526-9.432,1.848-10.712,2.225
	c-2.421-3.27-6.459-7.587-7.336-8.517c0.358-2.131,0.818-3.883,1.194-5.105c0.273-0.893,0.497-1.489,0.607-1.773
	c0.457-0.181,1.69-0.653,3.332-1.13c2.036-0.592,4.685-1.175,7.165-1.203c0.371,0.346,1.405,1.327,2.658,2.606
	C215.332,379.579,217.195,381.598,218.516,383.391z"/>
<path fill="#FFFFFF" d="M191.323,372.389c3.218,1.014,5.352,2.334,6.674,3.396c0.669,0.535,1.132,1.003,1.426,1.336
	c0.11,0.125,0.189,0.223,0.253,0.304c-0.306,0.795-1.21,3.336-1.827,6.98c-1.435,0.53-8.229,3.121-12.917,6.322
	c-0.76-0.442-2.982-1.689-5.658-2.767c-0.031-0.473-0.05-0.937-0.05-1.385c0-3.223,0.752-5.873,1.505-7.716
	c0.375-0.921,0.75-1.641,1.029-2.125c0.199-0.346,0.341-0.56,0.408-0.658c0.274-0.187,1.339-0.886,2.853-1.643
	C186.755,373.565,189.06,372.646,191.323,372.389z"/>
<path fill="#FFFFFF" d="M207.123,413.104c-0.332-0.451-1.095-1.514-1.955-2.865c-1.11-1.738-2.365-3.952-3.04-5.884
	c1.932-3.005,3.838-8.938,4.248-10.235c0.486-0.144,1.647-0.479,3.202-0.857c2.006-0.489,4.66-1.042,7.318-1.342
	c0.098,0.129,0.235,0.313,0.404,0.562c1.04,1.52,3.118,5.146,3.141,9.644c-0.677,1.914-1.842,4.157-2.844,5.92
	c-0.823,1.448-1.532,2.57-1.771,2.945c-0.314,0.118-1.129,0.413-2.364,0.768C211.914,412.205,209.724,412.734,207.123,413.104z"/>
<path fill="#FFFFFF" d="M216.946,411.105c0.82-1.311,2.85-4.667,4.085-7.699l0.255,0.465c-0.983,2.651-2.351,5.113-4.034,7.324
	L216.946,411.105z"/>
<path fill="#FFFFFF" d="M220.446,382.101c-0.346,0.077-0.792,0.217-1.292,0.459c-2.553-3.382-6.668-7.27-7.378-7.932
	c-0.458-1.803-1.172-3.402-1.761-4.536c1.702,1.098,3.282,2.366,4.707,3.792C217.087,376.248,219.03,379.027,220.446,382.101z"/>
<path fill="#FFFFFF" d="M194.617,365.554c0.211,0,0.421,0.012,0.632,0.016c-1.044,1.042-2.783,3.025-4.204,5.842
	c-4.349,0.56-8.492,3.201-9.354,3.773c-2.059-0.333-5.92-0.562-7.795-0.658c0.204-0.216,0.404-0.434,0.614-0.643
	C179.657,368.737,186.763,365.554,194.617,365.554z"/>
<path fill="#FFFFFF" d="M166.217,392.604c0.517,1.079,1.314,2.554,2.479,4.287c0.671,4.166,2.043,7.56,2.285,8.134
	c0.01,2.208,0.305,4.193,0.6,5.629c-3.395-4.685-5.399-10.436-5.399-16.664C166.182,393.527,166.196,393.063,166.217,392.604z"/>
<path fill="#FFFFFF" d="M185.545,420.94c0.576,0.025,1.085,0.035,1.52,0.035c0.988-0.001,1.595-0.048,1.78-0.064
	c0.537,0.071,4.78,0.611,9.989,0.625l0.6,0.475c-1.567,0.267-3.174,0.415-4.817,0.415
	C191.443,422.427,188.395,421.898,185.545,420.94z"/>
</svg>
